<svg width="14" height="20" viewBox="0 0 14 20" fill="none" xmlns="http://www.w3.org/2000/svg">
<path opacity="0.4" fill-rule="evenodd" clip-rule="evenodd" d="M0.891614 3.7498C0.891614 1.67874 3.02077 -0.000256121 5.64713 -0.000256121C8.27359 -0.000256121 10.4027 1.67874 10.4027 3.7498V14.9998C10.4027 16.3806 8.98322 17.4997 7.23229 17.4997C5.48135 17.4997 4.06191 16.3806 4.06191 14.9998V4.99982H5.64713V14.9998C5.64713 15.6901 6.35678 16.2498 7.23229 16.2498C8.1078 16.2498 8.81752 15.6901 8.81752 14.9998V3.7498C8.81752 2.36906 7.39808 1.24978 5.64713 1.24978C3.89611 1.24978 2.47667 2.36906 2.47667 3.7498V14.9998C2.47667 17.0709 4.60584 18.7499 7.23229 18.7499C9.85873 18.7499 11.9879 17.0709 11.9879 14.9998V2.4998H13.573V15.6248C13.1823 18.0905 10.4653 19.9999 7.23229 19.9999C3.99946 19.9999 1.28237 18.0905 0.891429 15.6248L0.891614 3.7498Z" fill="black"/>
</svg>
