<svg width="18" height="17" viewBox="0 0 18 17" fill="none" xmlns="http://www.w3.org/2000/svg">
<path opacity="0.5" fill-rule="evenodd" clip-rule="evenodd" d="M8.79925 14.4999C8.25144 14.4999 7.7174 14.4537 7.19819 14.3734L3.44558 16.5001V12.9596C1.489 11.6768 0.233276 9.70954 0.233276 7.49997C0.233276 3.63407 4.06844 0.5 8.79925 0.5C13.5301 0.5 17.3652 3.63407 17.3652 7.49997C17.3652 11.3661 13.5301 14.4999 8.79925 14.4999ZM8.79925 1.50017C4.65976 1.50017 1.30403 4.18644 1.30403 7.49997C1.30403 9.53325 2.57056 11.3269 4.50303 12.4121L4.46927 14.7314L6.98956 13.3165C7.57007 13.432 8.17406 13.5001 8.79925 13.5001C12.9387 13.5001 16.2946 10.8138 16.2946 7.49997C16.2946 4.18644 12.9387 1.50017 8.79925 1.50017ZM12.5469 7.00005H5.05165C4.75598 7.00005 4.51626 6.77608 4.51626 6.50008C4.51626 6.22382 4.75598 6.00003 5.05165 6.00003H12.5469C12.8425 6.00003 13.0823 6.22382 13.0823 6.50008C13.0823 6.77608 12.8425 7.00005 12.5469 7.00005ZM6.12241 9.00005H11.4761C11.7718 9.00005 12.0116 9.22388 12.0116 9.50002C12.0116 9.7763 11.7718 10.0001 11.4761 10.0001H6.12241C5.82667 10.0001 5.58703 9.7763 5.58703 9.50002C5.58703 9.22388 5.82667 9.00005 6.12241 9.00005Z" fill="white"/>
</svg>
