<svg width="20" height="20" viewBox="0 0 20 20" fill="none" xmlns="http://www.w3.org/2000/svg">
<g opacity="0.5">
<path fill-rule="evenodd" clip-rule="evenodd" d="M10.0001 -1.52588e-05C15.5229 -1.52588e-05 20 4.47716 20 9.99998C20 15.5229 15.5229 20 10.0001 20C4.47715 20 0 15.5229 0 9.99998C0 4.47716 4.47715 -1.52588e-05 10.0001 -1.52588e-05Z" fill="#E8E8EB"/>
<path fill-rule="evenodd" clip-rule="evenodd" d="M8.49377 15.9833H10.6746V9.93103H12.1962L12.3584 7.90499H10.6746C10.6746 7.90499 10.6746 7.14853 10.6746 6.75094C10.6746 6.2733 10.7614 6.08419 11.1782 6.08419C11.5135 6.08419 12.3584 6.08419 12.3584 6.08419V3.98153C12.3584 3.98153 11.114 3.98153 10.8483 3.98153C9.22543 3.98153 8.49377 4.77332 8.49377 6.28946C8.49377 7.61002 8.49377 7.90499 8.49377 7.90499H7.35957V9.95672H8.49377V15.9833Z" fill="black"/>
</g>
</svg>
