<svg width="20" height="20" viewBox="0 0 20 20" fill="none" xmlns="http://www.w3.org/2000/svg">
<g opacity="0.5">
<path fill-rule="evenodd" clip-rule="evenodd" d="M9.99997 -1.52588e-05C15.5229 -1.52588e-05 20 4.47716 20 9.99998C20 15.5229 15.5229 20 9.99997 20C4.47715 20 0 15.5229 0 9.99998C0 4.47716 4.47715 -1.52588e-05 9.99997 -1.52588e-05Z" fill="#E8E8EB"/>
<path fill-rule="evenodd" clip-rule="evenodd" d="M12.2318 7.83499C11.6979 7.27275 10.9564 6.92347 10.1357 6.92347C9.31513 6.92347 8.57354 7.27275 8.04006 7.83499H4.39454V6.28479C4.39454 5.48929 4.77421 4.78629 5.35517 4.35885V6.90029H5.82139V4.09454C5.92703 4.05062 6.03685 4.01448 6.14974 3.98729V6.90029H6.61589V3.92588C6.62376 3.9258 6.63155 3.92557 6.63931 3.92535C6.64906 3.92507 6.65877 3.92479 6.66861 3.92479H6.9379V6.90029H7.40411V3.92479H13.6181C14.8738 3.92479 15.8922 4.98146 15.8922 6.28479L15.8919 7.83499H12.2318ZM13.2587 4.9115C13.057 4.9115 12.8937 5.08106 12.8937 5.29007V6.5943C12.8937 6.80331 13.057 6.97287 13.2587 6.97287H14.4878C14.6894 6.97287 14.8527 6.80331 14.8527 6.5943V5.29007C14.8527 5.08106 14.6894 4.9115 14.4878 4.9115H13.2587Z" fill="black"/>
<path fill-rule="evenodd" clip-rule="evenodd" d="M11.0706 7.83499C11.2744 7.93132 11.4619 8.05781 11.6283 8.20884C12.1022 8.64061 12.4023 9.27304 12.4023 9.97713C12.4023 11.2745 11.3856 12.3296 10.1357 12.3296C8.88613 12.3296 7.86941 11.2745 7.86941 9.97713C7.86941 9.27304 8.16949 8.64061 8.64347 8.20884C8.80952 8.05781 8.99728 7.93132 9.20088 7.83499C9.4862 7.70052 9.80271 7.62476 10.1357 7.62476C10.469 7.62476 10.7855 7.70052 11.0706 7.83499ZM8.46814 9.97713C8.46814 10.9373 9.21799 11.7157 10.1432 11.7157C11.0683 11.7157 11.8183 10.9373 11.8183 9.97713C11.8183 9.01712 11.0683 8.23887 10.1432 8.23887C9.21799 8.23887 8.46814 9.01712 8.46814 9.97713Z" fill="black"/>
<path d="M13.6181 15.9205H6.66861C5.41292 15.9205 4.39454 14.8641 4.39454 13.5605V8.20884H7.73824C7.39577 8.70793 7.19392 9.31781 7.19392 9.97713C7.19392 11.6635 8.51112 13.0309 10.1357 13.0309C11.7605 13.0309 13.0779 11.6635 13.0779 9.97713C13.0779 9.31781 12.8757 8.70793 12.5335 8.20884H15.8922V13.5605C15.8922 14.8641 14.8741 15.9205 13.6181 15.9205Z" fill="black"/>
</g>
</svg>
