<svg width="7" height="17" viewBox="0 0 7 17" fill="none" xmlns="http://www.w3.org/2000/svg">
<g opacity="0.3">
<path fill-rule="evenodd" clip-rule="evenodd" d="M3.73066 6.99988C4.75204 6.99988 5.58002 7.78337 5.58002 8.74987C5.58002 9.71637 4.75204 10.4999 3.73066 10.4999C2.7093 10.4999 1.88122 9.71637 1.88122 8.74987C1.88122 7.78337 2.7093 6.99988 3.73066 6.99988Z" fill="black"/>
<path fill-rule="evenodd" clip-rule="evenodd" d="M3.73058 0.999886C4.75196 0.999886 5.57994 1.78338 5.57994 2.74988C5.57994 3.71638 4.75196 4.49987 3.73058 4.49987C2.70922 4.49987 1.88115 3.71638 1.88115 2.74988C1.88115 1.78338 2.70922 0.999886 3.73058 0.999886Z" fill="black"/>
<path fill-rule="evenodd" clip-rule="evenodd" d="M3.73058 12.9999C4.75196 12.9999 5.57994 13.7834 5.57994 14.7499C5.57994 15.7164 4.75196 16.4999 3.73058 16.4999C2.70922 16.4999 1.88115 15.7164 1.88115 14.7499C1.88115 13.7834 2.70922 12.9999 3.73058 12.9999Z" fill="black"/>
</g>
</svg>
