<svg width="20" height="20" viewBox="0 0 20 20" fill="none" xmlns="http://www.w3.org/2000/svg">
<g opacity="0.5">
<path fill-rule="evenodd" clip-rule="evenodd" d="M10.0001 -1.52588e-05C15.5229 -1.52588e-05 20 4.47716 20 9.99998C20 15.5229 15.5229 20 10.0001 20C4.47715 20 0 15.5229 0 9.99998C0 4.47716 4.47715 -1.52588e-05 10.0001 -1.52588e-05Z" fill="#E8E8EB"/>
<path d="M5.79962 7.1122C6.54104 7.1122 7.14211 6.50638 7.14211 5.75956C7.14211 5.01255 6.54104 4.40711 5.79962 4.40711C5.05828 4.40711 4.45722 5.01255 4.45722 5.75956C4.45722 6.50638 5.05828 7.1122 5.79962 7.1122Z" fill="black"/>
<path d="M4.67551 15.4023H6.94551V8.07212H4.67551V15.4023Z" fill="black"/>
<path d="M11.9573 9.91018C11.0488 9.91018 10.5741 10.5237 10.5741 11.5546V15.4023H8.3968V8.07212H10.5741V9.05941C10.5741 9.05941 11.2289 7.8483 12.784 7.8483C14.3392 7.8483 15.4523 8.79758 15.4523 10.761V15.4023H13.1932V11.5546C13.1932 10.4991 12.7922 9.91018 11.9573 9.91018Z" fill="black"/>
</g>
</svg>
