<svg width="16" height="14" viewBox="0 0 16 14" fill="none" xmlns="http://www.w3.org/2000/svg">
<path opacity="0.5" fill-rule="evenodd" clip-rule="evenodd" d="M15.3638 13.8658C15.1767 14.0399 14.8737 14.0399 14.6867 13.8658L10.8527 10.2956C9.78294 11.104 8.42091 11.5899 6.93585 11.5899C3.49888 11.5899 0.712646 8.99541 0.712646 5.79492C0.712646 2.59439 3.49888 -0.00012207 6.93585 -0.00012207C10.3728 -0.00012207 13.1591 2.59439 13.1591 5.79492C13.1591 7.29139 12.5448 8.65094 11.5447 9.6791L15.3638 13.2353C15.5507 13.4095 15.5507 13.6917 15.3638 13.8658ZM6.93585 0.891469C4.02756 0.891469 1.66998 3.08673 1.66998 5.79492C1.66998 8.50308 4.02756 10.6985 6.93585 10.6985C9.84405 10.6985 12.2016 8.50308 12.2016 5.79492C12.2016 3.08673 9.84405 0.891469 6.93585 0.891469Z" fill="black"/>
</svg>
