<svg width="15" height="20" viewBox="0 0 15 20" fill="none" xmlns="http://www.w3.org/2000/svg">
<path opacity="0.4" fill-rule="evenodd" clip-rule="evenodd" d="M6.54563 19.9997C6.18741 19.9997 5.89701 19.7199 5.89701 19.3748C5.89701 19.0297 6.18741 18.7499 6.54563 18.7499H7.19406V17.4717C3.99229 17.1933 1.28153 14.8739 0.709104 11.8747H2.00615C2.59647 14.3788 5.0656 16.2497 7.84258 16.2497C10.6195 16.2497 13.0886 14.3788 13.6789 11.8747H14.976C14.4034 14.8739 11.6927 17.1933 8.49101 17.4717V18.7499H9.13953C9.49765 18.7499 9.78806 19.0297 9.78806 19.3748C9.78806 19.7199 9.49765 19.9997 9.13953 19.9997H6.54563ZM7.84258 14.9998C5.33545 14.9998 3.3031 13.0411 3.3031 10.6248V4.37493C3.3031 1.95865 5.33545 -0.000300646 7.84258 -0.000300646C10.3495 -0.000300646 12.382 1.95865 12.382 4.37493V10.6248C12.382 13.0411 10.3495 14.9998 7.84258 14.9998ZM11.085 4.37493C11.085 2.64902 9.63328 1.24973 7.84258 1.24973C6.05178 1.24973 4.60007 2.64902 4.60007 4.37493V10.6248C4.60007 12.3507 6.05178 13.7498 7.84258 13.7498C9.63328 13.7498 11.085 12.3507 11.085 10.6248V4.37493Z" fill="black"/>
</svg>
