<svg width="15" height="14" viewBox="0 0 15 14" fill="none" xmlns="http://www.w3.org/2000/svg">
<path opacity="0.4" fill-rule="evenodd" clip-rule="evenodd" d="M10.0528 12.1333C9.8254 13.1982 8.83577 13.9998 7.64896 13.9998C6.46215 13.9998 5.47252 13.1982 5.24518 12.1333H0.779785L2.74237 8.39989V4.66649C2.74237 2.08923 4.93917 -0.00012207 7.64896 -0.00012207C10.3588 -0.00012207 12.5556 2.08923 12.5556 4.66649V8.39989L14.5181 12.1333H10.0528ZM7.64896 13.0666C8.28894 13.0666 8.828 12.6758 9.03084 12.1333H6.26717C6.46992 12.6758 7.00899 13.0666 7.64896 13.0666ZM11.5742 8.39989V4.66649C11.5742 2.60479 9.81684 0.933241 7.64896 0.933241C5.48107 0.933241 3.72371 2.60479 3.72371 4.66649V8.39989L2.25171 11.1999H13.0461L11.5742 8.39989Z" fill="black"/>
</svg>
