<svg width="11" height="13" viewBox="0 0 11 13" fill="none" xmlns="http://www.w3.org/2000/svg">
<path opacity="0.4" fill-rule="evenodd" clip-rule="evenodd" d="M7.74084 12.4998H3.19535C1.68918 12.4998 0.46814 11.4924 0.46814 10.2497V8.74977C0.46814 7.76474 1.24032 6.93659 2.30871 6.63183C1.72677 5.98409 1.37718 5.15439 1.37718 4.24984C1.37718 2.17873 3.20879 0.499756 5.46818 0.499756C7.72748 0.499756 9.55901 2.17873 9.55901 4.24984C9.55901 5.15439 9.20942 5.98409 8.62757 6.63183C9.69595 6.93659 10.4681 7.76474 10.4681 8.74977V10.2497C10.4681 11.4924 9.24709 12.4998 7.74084 12.4998ZM8.64996 4.24984C8.64996 2.59292 7.22548 1.24978 5.46818 1.24978C3.71088 1.24978 2.28639 2.59292 2.28639 4.24984C2.28639 5.90662 3.71088 7.24976 5.46818 7.24976C7.22548 7.24976 8.64996 5.90662 8.64996 4.24984ZM9.55901 8.93731C9.55901 8.14015 8.82573 7.47595 7.84282 7.29936C7.17287 7.7386 6.35465 7.99974 5.46818 7.99974C4.58171 7.99974 3.76341 7.7386 3.09346 7.29936C2.11063 7.47595 1.37718 8.14015 1.37718 8.93731V10.0623C1.37718 10.9942 2.37625 11.7498 3.60864 11.7498H7.32764C8.5601 11.7498 9.55901 10.9942 9.55901 10.0623V8.93731Z" fill="black"/>
</svg>
