<svg width="16" height="15" viewBox="0 0 16 15" fill="none" xmlns="http://www.w3.org/2000/svg">
<path opacity="0.6" fill-rule="evenodd" clip-rule="evenodd" d="M14.7354 5.84995L13.5749 6.48095C13.6401 6.81225 13.6828 7.15075 13.6828 7.50014C13.6828 7.84937 13.6401 8.18787 13.5749 8.51919L14.7354 9.15015C15.2095 9.40786 15.3719 9.97864 15.0983 10.4251L14.1071 12.0417C13.8334 12.488 13.2273 12.641 12.7533 12.3833L11.5808 11.7459C11.0331 12.185 10.4104 12.5439 9.71834 12.7747V13.5667C9.71834 14.0821 9.27462 14.5001 8.72717 14.5001H6.74496C6.19768 14.5001 5.75396 14.0821 5.75396 13.5667V12.7747C5.06187 12.5439 4.43919 12.185 3.89138 11.7459L2.71902 12.3833C2.24493 12.641 1.63879 12.488 1.3651 12.0417L0.374021 10.4251C0.100356 9.97864 0.262784 9.40786 0.73679 9.15015L1.89727 8.51919C1.83222 8.18787 1.78951 7.84937 1.78951 7.50014C1.78951 7.15075 1.83222 6.81225 1.89727 6.48095L0.73679 5.84995C0.262784 5.59226 0.100356 5.02135 0.374021 4.57507L1.3651 2.95845C1.63879 2.51199 2.24493 2.35897 2.71902 2.6168L3.89138 3.25424C4.43919 2.81502 5.06187 2.45621 5.75396 2.2255V1.43344C5.75396 0.918018 6.19768 0.500122 6.74496 0.500122H8.72717C9.27462 0.500122 9.71834 0.918018 9.71834 1.43344V2.2255C10.4104 2.45621 11.0331 2.81502 11.5808 3.25424L12.7533 2.6168C13.2273 2.35897 13.8334 2.51199 14.1071 2.95845L15.0983 4.57507C15.3719 5.02135 15.2095 5.59226 14.7354 5.84995ZM13.9921 4.63749L13.4966 3.82917C13.3597 3.60609 13.0566 3.52947 12.8197 3.6584L11.4428 4.40704C10.7439 3.66465 9.79946 3.13212 8.72717 2.92713V1.90007C8.72717 1.64233 8.50531 1.43344 8.23165 1.43344H7.24057C6.9668 1.43344 6.74496 1.64233 6.74496 1.90007V2.92713C5.67276 3.13212 4.72832 3.66465 4.02951 4.40704L2.65264 3.6584C2.41558 3.52947 2.11252 3.60609 1.97563 3.82917L1.48018 4.63749C1.34329 4.86071 1.42452 5.14623 1.66147 5.27502L3.0439 6.02662C2.87922 6.49081 2.78058 6.98359 2.78058 7.50014C2.78058 8.01655 2.87922 8.50927 3.0439 8.97357L1.66147 9.7251C1.42452 9.85405 1.34329 10.1394 1.48018 10.3626L1.97563 11.1708C2.11252 11.394 2.41558 11.4705 2.65264 11.3416L4.02943 10.5931C4.72832 11.3355 5.67276 11.868 6.74496 12.073V13.1001C6.74496 13.3578 6.9668 13.5667 7.24057 13.5667H8.23165C8.50531 13.5667 8.72717 13.3578 8.72717 13.1001V12.073C9.79946 11.868 10.7439 11.3355 11.4428 10.5931L12.8197 11.3416C13.0566 11.4705 13.3597 11.394 13.4966 11.1708L13.9921 10.3626C14.129 10.1394 14.0477 9.85405 13.8107 9.7251L12.4283 8.97357C12.5931 8.50927 12.6916 8.01655 12.6916 7.50014C12.6916 6.98359 12.5931 6.49081 12.4283 6.02662L13.8107 5.27502C14.0477 5.14623 14.129 4.86071 13.9921 4.63749ZM7.73611 9.83331C6.36763 9.83331 5.25835 8.7887 5.25835 7.50014C5.25835 6.2113 6.36763 5.16669 7.73611 5.16669C9.1045 5.16669 10.2139 6.2113 10.2139 7.50014C10.2139 8.7887 9.1045 9.83331 7.73611 9.83331ZM7.73611 6.10006C6.91508 6.10006 6.2495 6.72686 6.2495 7.50014C6.2495 8.27323 6.91508 8.89994 7.73611 8.89994C8.55714 8.89994 9.22271 8.27323 9.22271 7.50014C9.22271 6.72686 8.55714 6.10006 7.73611 6.10006Z" fill="white"/>
</svg>
