<svg width="20" height="20" viewBox="0 0 20 20" fill="none" xmlns="http://www.w3.org/2000/svg">
<g opacity="0.5">
<path fill-rule="evenodd" clip-rule="evenodd" d="M10.0001 -1.52588e-05C15.5229 -1.52588e-05 20.0001 4.47716 20.0001 9.99998C20.0001 15.5229 15.5229 20 10.0001 20C4.47728 20 0.00012207 15.5229 0.00012207 9.99998C0.00012207 4.47716 4.47728 -1.52588e-05 10.0001 -1.52588e-05Z" fill="#E8E8EB"/>
<path fill-rule="evenodd" clip-rule="evenodd" d="M3.967 13.4759C5.05706 14.1206 6.35164 14.4969 7.74237 14.4969C12.3154 14.4969 14.8987 10.9335 14.7432 7.73743C15.2242 7.41719 15.6419 7.01697 15.972 6.56117C15.5302 6.74194 15.0555 6.8642 14.5574 6.91894C15.0658 6.63808 15.4564 6.19267 15.6402 5.66185C15.1643 5.92231 14.6372 6.11152 14.0763 6.21327C13.6272 5.77162 12.9871 5.49572 12.2785 5.49572C10.6889 5.49572 9.52028 6.86448 9.87918 8.28608C7.83224 8.19115 6.01745 7.28649 4.80296 5.91176C4.15776 6.93306 4.46826 8.26934 5.56516 8.94535C5.16128 8.93367 4.78135 8.83125 4.44923 8.66125C4.42277 9.71397 5.24023 10.6984 6.42483 10.9182C6.0782 11.005 5.69859 11.025 5.31282 10.957C5.626 11.8597 6.53573 12.5165 7.61337 12.5348C6.57804 13.2838 5.27377 13.6182 3.967 13.4759Z" fill="black"/>
</g>
</svg>
